<svg width="61" height="14" viewBox="0 0 61 14" fill="none" xmlns="http://www.w3.org/2000/svg">
<g clip-path="url(#clip0_1050_25)">
<path d="M16.8593 0H12.7395L8.42963 9.42904L4.11972 0H0L6.43634 13.7143H10.4229L16.8593 0Z" fill="white"/>
<path d="M16.9734 13.7143H21.0931L25.403 4.28525L29.7129 13.7143H33.8327L27.3963 0H23.4135L16.9734 13.7143Z" fill="#161C24"/>
<path d="M60.1906 0H56.0708L51.7571 9.42904L47.451 0H43.3313L49.7676 13.7143H53.7504L60.1906 0Z" fill="#161C24"/>
<path d="M16.8593 0H12.7395L8.42963 9.42904L4.11972 0H0L6.43634 13.7143H10.4229L16.8593 0Z" fill="#161C24"/>
<path d="M40.5847 0H36.5791V13.7143H40.5847V0Z" fill="#161C24"/>
</g>
<defs>
<clipPath id="clip0_1050_25">
<rect width="60.1905" height="13.7143" fill="white"/>
</clipPath>
</defs>
</svg>
